<svg xmlns="http://www.w3.org/2000/svg" viewBox="0 0 2071 373"><g transform="scale(1.2595) translate(-4 -5)"><path fill="#22324F" d="M147.85 297.29C145.00 295.80 142.87 293.69 140.47 290.00C138.71 287.30 138.22 286.45 137.10 284.18C136.47 282.91 135.81 281.59 135.63 281.25C133.76 277.72 128.81 263.71 125.62 252.88C125.26 251.64 124.80 250.12 124.61 249.50C124.41 248.88 124.14 247.81 124.00 247.12C123.86 246.44 123.46 244.86 123.11 243.62C122.76 242.39 122.32 240.76 122.14 240.00C121.96 239.24 121.64 237.95 121.44 237.12C120.30 232.51 118.64 224.36 117.50 217.88C116.47 212.06 116.27 210.86 116.12 209.62C116.04 208.94 115.76 206.86 115.50 205.00C114.53 198.04 113.35 186.77 113.00 181.00C112.86 178.73 112.63 175.94 112.49 174.79C112.13 171.86 112.05 171.99 114.75 170.80C118.72 169.06 120.91 167.99 128.67 164.01C130.34 163.16 131.91 162.49 132.16 162.54C132.43 162.59 132.69 162.97 132.82 163.50C134.09 168.75 136.18 172.84 139.89 177.34C141.57 179.38 145.58 182.96 147.55 184.19C148.38 184.70 149.27 185.32 149.53 185.56C149.98 185.98 150.00 186.94 150.03 213.06C150.05 227.95 150.10 253.01 150.14 268.75C150.18 288.10 150.12 297.48 149.95 297.69C149.60 298.11 149.33 298.06 147.85 297.29ZM155.61 297.72C155.33 297.28 155.43 189.22 155.71 188.94C155.85 188.80 156.58 188.99 157.66 189.46C162.09 191.40 169.63 193.59 173.66 194.12C174.33 194.21 175.94 194.44 177.25 194.64C180.43 195.12 187.89 195.75 190.41 195.75C193.20 195.75 193.17 195.70 192.53 199.81C192.25 201.63 191.89 204.08 191.74 205.24C191.59 206.41 191.41 207.44 191.35 207.54C191.29 207.63 191.08 208.76 190.88 210.04C189.66 217.77 187.64 227.76 186.26 232.88C186.11 233.43 185.89 234.38 185.77 235.00C185.64 235.62 185.24 237.25 184.88 238.62C184.51 240.00 184.05 241.80 183.86 242.62C183.49 244.24 182.80 246.83 182.01 249.62C181.73 250.59 181.22 252.44 180.87 253.74C180.52 255.04 179.38 258.64 178.33 261.74C177.28 264.84 176.26 267.88 176.06 268.50C175.72 269.55 175.08 271.26 173.55 275.25C171.90 279.57 168.00 287.17 166.18 289.62C163.08 293.79 160.88 295.89 158.18 297.26C156.65 298.04 155.89 298.18 155.61 297.72ZM187.25 189.76C173.51 188.92 161.97 185.94 154.63 181.33C147.60 176.93 144.71 174.22 141.83 169.37C139.42 165.32 138.22 160.95 138.12 155.91C138.08 153.71 137.94 152.09 137.79 151.94C137.60 151.75 137.24 151.85 136.57 152.30C136.05 152.65 134.96 153.30 134.15 153.73C133.34 154.17 131.85 155.02 130.84 155.64C129.83 156.25 128.92 156.75 128.82 156.75C128.71 156.76 128.12 157.10 127.50 157.52C126.44 158.25 120.43 161.27 113.50 164.56C108.13 167.11 107.20 167.50 102.00 169.39C100.69 169.87 99.46 170.33 99.25 170.42C97.42 171.19 90.87 173.53 89.12 174.04C79.44 176.84 77.43 177.32 68.50 178.98C56.74 181.17 43.48 181.19 31.25 179.03C24.09 177.77 13.55 174.10 9.83 171.58C9.36 171.26 8.89 171.00 8.77 171.00C8.60 171.00 7.30 170.08 6.31 169.24C5.90 168.90 5.91 168.34 6.33 168.18C6.52 168.11 7.44 168.25 8.40 168.49C10.33 168.98 14.56 169.77 19.25 170.52C23.75 171.23 33.03 171.58 38.62 171.24C44.29 170.91 48.79 170.20 55.50 168.59C60.81 167.32 66.07 165.46 73.25 162.30C80.96 158.92 91.96 152.58 101.86 145.83C103.10 144.98 106.38 142.76 109.12 140.90C111.88 139.05 115.31 136.72 116.75 135.72C122.80 131.55 132.39 125.30 135.12 123.74C142.45 119.56 151.40 115.51 156.38 114.11C163.05 112.23 166.55 111.58 171.92 111.23C181.41 110.62 189.47 112.38 197.87 116.93C200.69 118.46 205.81 123.13 207.67 125.88C210.02 129.35 212.42 134.68 212.99 137.72C213.38 139.74 213.38 143.16 213.01 143.62C212.38 144.37 211.77 144.02 209.94 141.85C204.33 135.22 197.48 131.98 190.72 132.75C182.15 133.73 176.15 140.07 176.16 148.12C176.18 157.69 184.62 165.75 199.40 170.34C205.01 172.08 214.46 172.87 222.17 172.24C232.80 171.37 241.60 169.15 256.38 163.62C257.75 163.10 259.55 162.43 260.38 162.13C262.96 161.17 266.10 159.98 266.75 159.71C267.97 159.19 272.89 157.46 274.04 157.13C274.68 156.95 275.33 156.73 275.48 156.64C275.63 156.54 276.46 156.26 277.32 156.01C278.17 155.75 280.00 155.21 281.38 154.79C282.75 154.38 284.95 153.80 286.25 153.50C287.56 153.21 289.30 152.82 290.12 152.63C290.95 152.44 292.30 152.22 293.12 152.13C293.95 152.04 295.19 151.86 295.88 151.73C298.07 151.32 305.02 151.05 308.18 151.25C311.16 151.45 311.87 151.56 315.25 152.41C316.14 152.63 317.21 152.87 317.62 152.94C318.58 153.10 319.01 153.44 318.83 153.89C318.73 154.16 318.17 154.25 316.51 154.25C314.14 154.25 307.40 154.86 305.38 155.26C304.69 155.39 303.46 155.62 302.65 155.76C299.86 156.25 292.50 158.54 289.00 160.01C287.97 160.44 285.94 161.27 284.50 161.87C281.78 162.98 278.55 164.50 270.25 168.57C261.99 172.61 257.04 175.00 256.90 175.00C256.83 175.00 255.95 175.38 254.95 175.85C251.65 177.39 247.19 179.23 241.88 181.25C241.19 181.52 238.94 182.24 236.88 182.86C234.81 183.49 232.62 184.16 232.00 184.36C230.57 184.81 227.41 185.58 220.00 187.26C211.06 189.28 197.04 190.35 187.25 189.76ZM111.76 127.69C111.77 119.94 113.69 98.02 114.62 95.00C114.69 94.79 114.91 93.41 115.12 91.92C115.32 90.43 115.55 89.12 115.62 89.01C115.69 88.90 115.86 87.98 116.00 86.97C116.30 84.87 116.78 82.73 118.55 75.62C119.24 72.88 119.89 70.23 119.99 69.75C120.81 66.04 126.23 49.80 128.51 44.25C132.42 34.69 137.53 24.44 141.50 18.13C145.03 12.53 148.99 7.41 149.68 7.55C150.00 7.62 150.04 14.30 150.01 58.50C149.99 86.48 149.90 109.44 149.80 109.53C149.70 109.62 148.78 110.06 147.75 110.50C145.78 111.34 138.58 114.91 136.88 115.88C136.32 116.20 135.30 116.75 134.59 117.11C133.88 117.47 132.89 118.04 132.39 118.38C131.89 118.72 131.44 119.00 131.39 119.00C131.20 119.00 122.84 124.32 121.27 125.44C118.87 127.16 114.55 130.00 114.32 130.01C114.21 130.02 113.74 130.35 113.26 130.76C111.79 132.02 111.75 131.93 111.76 127.69ZM193.00 107.37C191.93 106.97 189.54 106.38 185.75 105.59C183.40 105.10 181.82 104.96 177.12 104.83C169.92 104.64 165.72 105.08 159.50 106.68C156.06 107.57 155.77 107.61 155.65 107.22C155.59 107.03 155.46 84.46 155.37 57.06C155.21 8.67 155.22 7.25 155.67 7.25C156.51 7.25 161.49 12.66 163.88 16.15C164.43 16.95 165.50 18.51 166.26 19.62C170.91 26.36 178.93 42.54 182.25 51.88C184.59 58.45 185.59 61.33 185.99 62.62C186.24 63.45 186.69 64.91 186.99 65.88C187.29 66.84 187.69 68.28 187.88 69.08C188.06 69.88 188.29 70.73 188.38 70.96C188.61 71.55 189.86 76.66 190.49 79.62C190.79 81.00 191.19 82.80 191.39 83.62C191.59 84.45 191.86 85.92 192.00 86.90C192.13 87.88 192.30 88.83 192.37 89.03C192.65 89.78 193.90 99.33 194.63 106.31C194.79 107.93 194.68 108.00 193.00 107.37Z"/></g><g transform="translate(470.5 37.3) scale(0.19440) translate(-173.0 1516.0)"><path fill="#22324F" d="M491.19970703125 -1417.9998779296875Q555.1988525390625 -1417.9998779296875 622.5984497070312 -1407.5999755859375Q689.998046875 -1397.2000732421875 756.4979248046875 -1381.8002319335938Q822.997802734375 -1366.400390625 884.0977783203125 -1350.5005493164062Q945.19775390625 -1334.6007080078125 996.59765625 -1324.2008056640625Q1047.99755859375 -1313.8009033203125 1084.59716796875 -1313.8009033203125Q1117.797607421875 -1313.8009033203125 1135.6978149414062 -1328.30078125Q1153.5980224609375 -1342.8006591796875 1162.998046875 -1370.400390625Q1169.398193359375 -1387.6005859375 1170.7981567382812 -1398.7007446289062Q1172.1981201171875 -1409.8009033203125 1175.798095703125 -1423.000732421875Q1186.1978759765625 -1466.7996826171875 1210.497314453125 -1491.4991455078125Q1234.7967529296875 -1516.1986083984375 1284.1954345703125 -1516.1986083984375Q1330.9942626953125 -1516.1986083984375 1358.7935791015625 -1483.099365234375Q1386.5928955078125 -1450.0001220703125 1385.19287109375 -1382.6015625Q1383.5928955078125 -1282.203369140625 1322.093505859375 -1222.4042358398438Q1260.5941162109375 -1162.6051025390625 1153.1953125 -1162.6051025390625Q1108.3956298828125 -1162.6051025390625 1044.1961059570312 -1175.0049438476562Q979.99658203125 -1187.40478515625 906.1970825195312 -1205.6045532226562Q832.3975830078125 -1223.8043212890625 758.5980224609375 -1241.5040893554688Q684.7984619140625 -1259.203857421875 620.19873046875 -1271.6036987304688Q555.5989990234375 -1284.0035400390625 510.39892578125 -1284.0035400390625Q446.9974365234375 -1284.0035400390625 419.4970703125 -1253.8035888671875Q391.9967041015625 -1223.6036376953125 390.9967041015625 -1170.6038818359375Q390.9967041015625 -1158.6038818359375 393.19683837890625 -1147.2037963867188Q395.39697265625 -1135.8037109375 397.797119140625 -1122.70361328125Q400.197265625 -1109.603515625 399.7972412109375 -1092.803466796875Q399.397216796875 -1047.0047607421875 375.397705078125 -1016.60546875Q351.398193359375 -986.2061767578125 298.99951171875 -986.2061767578125Q241.6009521484375 -986.2061767578125 206.80181884765625 -1024.6052856445312Q172.002685546875 -1063.00439453125 173.20263671875 -1134.2027587890625Q175.20263671875 -1215.0020751953125 212.00225830078125 -1279.5014038085938Q248.8018798828125 -1344.000732421875 319.001220703125 -1381.0003051757812Q389.2005615234375 -1417.9998779296875 491.19970703125 -1417.9998779296875ZM649.590576171875 -222.1951904296875Q640.790771484375 -185.7957763671875 646.390869140625 -172.7957763671875Q651.990966796875 -159.7957763671875 670.990966796875 -151.196044921875L725.192138671875 -134.79638671875Q770.99169921875 -113.3970947265625 770.99169921875 -72.39794921875Q770.99169921875 -35.7989501953125 748.09228515625 -17.89947509765625Q725.19287109375 0.0 689.59375 0.0H275.7967529296875Q240.19775390625 0.0 224.19818115234375 -17.3995361328125Q208.1986083984375 -34.799072265625 208.5986328125 -61.998291015625Q209.398681640625 -90.99755859375 224.8984375 -109.5970458984375Q240.398193359375 -128.196533203125 265.3978271484375 -138.796142578125L312.1986083984375 -153.5958251953125Q342.9989013671875 -164.195556640625 357.39910888671875 -184.5953369140625Q371.79931640625 -204.9951171875 384.19921875 -251.9947509765625Q394.9991455078125 -289.1944580078125 413.5992431640625 -356.794677734375Q432.1993408203125 -424.3948974609375 456.3995361328125 -510.9954833984375Q480.5997314453125 -597.5960693359375 507.0999755859375 -694.3968505859375Q533.6002197265625 -791.1976318359375 560.1004638671875 -888.3984375Q586.6007080078125 -985.5992431640625 610.700927734375 -1073.2999267578125Q634.8011474609375 -1161.0006103515625 653.7012939453125 -1230.6010131835938Q672.6014404296875 -1300.201416015625 684.00146484375 -1340.4013671875L940.9930419921875 -1292.40283203125Q925.3931884765625 -1236.403564453125 904.3931274414062 -1159.0034790039062Q883.39306640625 -1081.6033935546875 858.2928466796875 -991.2027587890625Q833.192626953125 -900.8021240234375 807.392333984375 -806.3011474609375Q781.592041015625 -711.8001708984375 756.8917236328125 -620.6990966796875Q732.19140625 -529.5980224609375 710.7911376953125 -450.297119140625Q689.390869140625 -370.9962158203125 673.2907104492188 -311.795654296875Q657.1905517578125 -252.5950927734375 649.590576171875 -222.1951904296875ZM1460.5921630859375 -302.994140625Q1440.9920654296875 -249.59375 1441.8922119140625 -220.69354248046875Q1442.7923583984375 -191.7933349609375 1470.392578125 -191.7933349609375Q1485.19287109375 -191.7933349609375 1501.7933349609375 -199.79364013671875Q1518.393798828125 -207.7939453125 1538.9942626953125 -229.19482421875Q1548.1943359375 -237.7950439453125 1556.0943603515625 -240.695068359375Q1563.994384765625 -243.5950927734375 1571.5943603515625 -241.9949951171875Q1592.393798828125 -240.3948974609375 1599.8934326171875 -212.7955322265625Q1607.39306640625 -185.1961669921875 1583.1937255859375 -138.797607421875Q1543.194091796875 -66.3985595703125 1476.6951293945312 -24.1993408203125Q1410.1961669921875 17.9998779296875 1329.5977783203125 17.9998779296875Q1259.5992431640625 17.9998779296875 1224.1998901367188 -16.19952392578125Q1188.800537109375 -50.39892578125 1185.9005737304688 -109.298095703125Q1183.0006103515625 -168.197265625 1211.4002685546875 -241.796630859375L1333.0028076171875 -574.604736328125Q1353.202880859375 -627.6051025390625 1350.5028076171875 -656.705322265625Q1347.802734375 -685.8055419921875 1320.2025146484375 -685.8055419921875Q1303.8021240234375 -685.8055419921875 1288.501708984375 -677.5051879882812Q1273.2012939453125 -669.204833984375 1250.80078125 -646.803955078125Q1243.000732421875 -640.0037841796875 1235.000732421875 -636.8037719726562Q1227.000732421875 -633.603759765625 1218.6007080078125 -635.6038818359375Q1197.80126953125 -637.60400390625 1190.6016235351562 -664.8033447265625Q1183.4019775390625 -692.002685546875 1206.601318359375 -738.001220703125Q1245.8009033203125 -809.400146484375 1312.6998901367188 -852.4994506835938Q1379.598876953125 -895.5987548828125 1460.997314453125 -895.5987548828125Q1530.995849609375 -895.5987548828125 1565.7952270507812 -861.1993408203125Q1600.5946044921875 -826.7999267578125 1603.4945678710938 -768.6007690429688Q1606.39453125 -710.401611328125 1579.5948486328125 -637.40234375ZM1535.5980224609375 -1028.002197265625Q1475.19970703125 -1028.002197265625 1442.1004638671875 -1066.3012084960938Q1409.001220703125 -1104.6002197265625 1408.4012451171875 -1163.598876953125Q1408.4012451171875 -1208.5977783203125 1428.6007690429688 -1249.5968627929688Q1448.80029296875 -1290.595947265625 1486.8993530273438 -1316.8953857421875Q1524.9984130859375 -1343.19482421875 1578.9970703125 -1343.19482421875Q1642.7952880859375 -1343.19482421875 1677.1944580078125 -1304.8958129882812Q1711.5936279296875 -1266.5968017578125 1712.193603515625 -1207.59814453125Q1712.193603515625 -1163.19921875 1691.2941284179688 -1121.900146484375Q1670.3946533203125 -1080.60107421875 1630.8956298828125 -1054.3016357421875Q1591.3966064453125 -1028.002197265625 1535.5980224609375 -1028.002197265625ZM2703.193603515625 -1200.2027587890625 2452.791259765625 -315.9949951171875Q2441.7911376953125 -277.39453125 2439.791015625 -249.3941650390625Q2437.7908935546875 -221.393798828125 2445.7908935546875 -206.2935791015625Q2453.7908935546875 -191.193359375 2472.39111328125 -191.193359375Q2486.7913818359375 -191.193359375 2501.3917846679688 -199.69366455078125Q2515.9921875 -208.1939697265625 2535.1927490234375 -231.594970703125Q2543.1927490234375 -239.3951416015625 2550.5927734375 -242.09515380859375Q2557.9927978515625 -244.795166015625 2564.9927978515625 -242.7950439453125Q2586.792236328125 -241.1949462890625 2591.991943359375 -218.99542236328125Q2597.191650390625 -196.7958984375 2580.7919921875 -150.397216796875Q2559.7919921875 -96.5980224609375 2521.9925537109375 -58.898681640625Q2484.193115234375 -21.1993408203125 2437.7940063476562 -1.5997314453125Q2391.3948974609375 17.9998779296875 2342.995849609375 17.9998779296875Q2270.59716796875 17.9998779296875 2236.2977294921875 -19.3995361328125Q2201.998291015625 -56.7989501953125 2201.998291015625 -124.3980712890625Q2201.998291015625 -155.7977294921875 2206.4984741210938 -191.89788818359375Q2210.9986572265625 -227.998046875 2223.19921875 -280.19921875Q2235.3997802734375 -332.400390625 2258.40087890625 -409.403076171875L2286.601318359375 -358.0068359375Q2225.0003662109375 -227.204345703125 2157.9996337890625 -144.202880859375Q2090.9989013671875 -61.201416015625 2019.4984741210938 -21.60076904296875Q1947.998046875 17.9998779296875 1870.7979736328125 17.9998779296875Q1771.9984130859375 17.9998779296875 1718.299072265625 -54.60052490234375Q1664.5997314453125 -127.200927734375 1677.4005126953125 -270.0013427734375Q1687.0010986328125 -381.8013916015625 1735.3013305664062 -492.4010009765625Q1783.6015625 -603.0006103515625 1864.3013916015625 -694.4000854492188Q1945.001220703125 -785.799560546875 2053.0005493164062 -840.6991577148438Q2160.9998779296875 -895.5987548828125 2289.1986083984375 -895.5987548828125Q2363.3973388671875 -895.5987548828125 2412.7965087890625 -868.7994995117188Q2462.1956787109375 -842.000244140625 2488.4954223632812 -798.3014526367188Q2514.795166015625 -754.6026611328125 2518.1956787109375 -701.8040771484375L2335.802001953125 -676.803466796875Q2324.201171875 -720.2030029296875 2303.6007080078125 -738.7028198242188Q2283.000244140625 -757.20263671875 2244.5997314453125 -757.20263671875Q2204.198974609375 -757.20263671875 2161.9981689453125 -731.1026611328125Q2119.79736328125 -705.002685546875 2080.7965698242188 -659.5026245117188Q2041.7957763671875 -614.0025634765625 2008.7950439453125 -555.102294921875Q1975.7943115234375 -496.2020263671875 1953.3936767578125 -430.6014404296875Q1930.9930419921875 -365.0008544921875 1922.9925537109375 -299.1998291015625Q1912.991943359375 -229.7978515625 1930.6923217773438 -190.39642333984375Q1948.3927001953125 -150.9949951171875 1983.7939453125 -150.9949951171875Q2024.1949462890625 -150.9949951171875 2068.8960571289062 -186.69580078125Q2113.59716796875 -222.3966064453125 2157.0982666015625 -284.2979736328125Q2200.599365234375 -346.1993408203125 2237.7002563476562 -426.30108642578125Q2274.8011474609375 -506.40283203125 2299.6016845703125 -595.2047119140625L2447.6019287109375 -1124.005615234375Q2467.201904296875 -1193.0054931640625 2463.9019165039062 -1220.2057495117188Q2460.6019287109375 -1247.406005859375 2437.2015380859375 -1247.406005859375Q2426.201416015625 -1247.406005859375 2413.9011840820312 -1243.1058959960938Q2401.6009521484375 -1238.8057861328125 2383.6007080078125 -1226.0054931640625Q2369.800537109375 -1215.8052978515625 2360.1005249023438 -1211.705322265625Q2350.4005126953125 -1207.6053466796875 2341.0006103515625 -1210.0054931640625Q2320.201171875 -1212.4056396484375 2314.9015502929688 -1239.4049682617188Q2309.6019287109375 -1266.404296875 2333.601318359375 -1312.40283203125Q2358.0008544921875 -1354.6016845703125 2395.0001220703125 -1387.40087890625Q2431.9993896484375 -1420.2000732421875 2479.2984008789062 -1438.6996459960938Q2526.597412109375 -1457.19921875 2580.396240234375 -1457.19921875Q2647.994873046875 -1457.19921875 2682.3942260742188 -1425.499755859375Q2716.7935791015625 -1393.80029296875 2721.1934814453125 -1336.2011108398438Q2725.5933837890625 -1278.6019287109375 2703.193603515625 -1200.2027587890625ZM2778.396728515625 -433.999267578125Q2778.396728515625 -433.999267578125 2810.0968627929688 -444.2994384765625Q2841.7969970703125 -454.599609375 2893.197265625 -471.59991455078125Q2944.5975341796875 -488.6002197265625 3005.2979125976562 -509.6005859375Q3065.998291015625 -530.6009521484375 3125.0987548828125 -551.5013427734375Q3184.19921875 -572.4017333984375 3229.5997314453125 -590.0020751953125L3203.2003173828125 -540.4029541015625Q3213.60009765625 -566.402587890625 3217.2000122070312 -598.701904296875Q3220.7999267578125 -631.001220703125 3220.7999267578125 -670.4005126953125Q3220.7999267578125 -717.4012451171875 3200.3994750976562 -744.501708984375Q3179.9990234375 -771.6021728515625 3138.9981689453125 -771.6021728515625Q3100.1973876953125 -771.6021728515625 3062.696533203125 -741.302001953125Q3025.1956787109375 -711.0018310546875 2992.994873046875 -656.4014282226562Q2960.7940673828125 -601.801025390625 2939.3934326171875 -529.4003295898438Q2917.9927978515625 -456.9996337890625 2911.992431640625 -373.3985595703125Q2903.5919189453125 -263.1966552734375 2946.1922607421875 -204.69586181640625Q2988.7926025390625 -146.195068359375 3070.393310546875 -146.195068359375Q3108.7935791015625 -146.195068359375 3149.8939819335938 -160.8953857421875Q3190.994384765625 -175.595703125 3230.0947265625 -206.89642333984375Q3269.195068359375 -238.1971435546875 3300.3951416015625 -288.598388671875Q3329.1942138671875 -320.59765625 3349.2936401367188 -332.6973876953125Q3369.39306640625 -344.797119140625 3389.392578125 -339.997314453125Q3407.792236328125 -335.7974853515625 3414.8921508789062 -318.69775390625Q3421.9920654296875 -301.5980224609375 3417.591796875 -276.39794921875Q3407.9912109375 -206.998291015625 3353.5916748046875 -139.19879150390625Q3299.192138671875 -71.3992919921875 3205.493408203125 -26.69970703125Q3111.794677734375 17.9998779296875 2983.7965087890625 17.9998779296875Q2870.99755859375 17.9998779296875 2796.5983276367188 -27.20001220703125Q2722.1990966796875 -72.39990234375 2687.9996337890625 -153.4998779296875Q2653.8001708984375 -234.599853515625 2659.4005126953125 -341.400146484375Q2665.0008544921875 -458.199951171875 2705.7008666992188 -559.7996826171875Q2746.40087890625 -661.3994140625 2815.2005004882812 -737.6991577148438Q2884.0001220703125 -813.9989013671875 2974.5993041992188 -857.19873046875Q3065.198486328125 -900.3985595703125 3170.59716796875 -900.3985595703125Q3249.3963623046875 -900.3985595703125 3302.1957397460938 -873.7987060546875Q3354.9951171875 -847.1988525390625 3385.7946166992188 -800.2991333007812Q3416.5941162109375 -753.3994140625 3427.3936767578125 -692.3997802734375Q3432.79345703125 -668.8004150390625 3438.2933959960938 -660.2006225585938Q3443.7933349609375 -651.600830078125 3454.793212890625 -646.201171875Q3466.1932373046875 -642.2015380859375 3473.9932861328125 -633.0018310546875Q3481.7933349609375 -623.8021240234375 3483.3934326171875 -610.40234375Q3485.3935546875 -587.8028564453125 3469.7939453125 -570.2032470703125Q3454.1943359375 -552.6036376953125 3410.595458984375 -538.6038818359375Q3360.9954833984375 -520.8037109375 3295.5955810546875 -498.7034912109375Q3230.1956787109375 -476.603271484375 3159.495849609375 -453.80303955078125Q3088.7960205078125 -431.0028076171875 3021.4962158203125 -409.3026123046875Q2954.1964111328125 -387.6024169921875 2899.99658203125 -370.50225830078125Q2845.7967529296875 -353.402099609375 2813.5968627929688 -343.302001953125Q2781.39697265625 -333.201904296875 2781.39697265625 -333.201904296875ZM4319.1976318359375 -700.6026611328125Q4259.1976318359375 -700.6026611328125 4205.69775390625 -731.6028442382812Q4152.1978759765625 -762.60302734375 4102.798034667969 -802.9032592773438Q4053.398193359375 -843.2034912109375 4005.5983276367188 -874.2036743164062Q3957.7984619140625 -905.203857421875 3908.5985107421875 -905.203857421875Q3852.9981689453125 -905.203857421875 3806.3980102539062 -865.0029907226562Q3759.7978515625 -824.8021240234375 3729.5977783203125 -757.80126953125Q3713.59814453125 -727.4017333984375 3689.898681640625 -711.3020629882812Q3666.19921875 -695.202392578125 3641.19970703125 -695.202392578125Q3572.201416015625 -695.202392578125 3597.40087890625 -787.0001220703125Q3620.4010009765625 -868.5999755859375 3673.700439453125 -936.3995971679688Q3726.9998779296875 -1004.19921875 3798.1990356445312 -1045.098876953125Q3869.398193359375 -1085.99853515625 3946.197509765625 -1085.99853515625Q4022.1968994140625 -1085.99853515625 4080.7965087890625 -1054.9983520507812Q4139.3961181640625 -1023.9981689453125 4186.695983886719 -983.9979248046875Q4233.995849609375 -943.9976806640625 4275.096008300781 -912.9974975585938Q4316.1961669921875 -881.997314453125 4357.796630859375 -881.997314453125Q4409.5966796875 -881.997314453125 4453.796813964844 -912.4978637695312Q4497.9969482421875 -942.9984130859375 4523.1971435546875 -1003.99951171875Q4543.3966064453125 -1041.998779296875 4568.096008300781 -1060.1984252929688Q4592.79541015625 -1078.3980712890625 4617.794921875 -1078.3980712890625Q4652.1939697265625 -1078.3980712890625 4663.793762207031 -1054.0985717773438Q4675.3935546875 -1029.799072265625 4663.19384765625 -982.400146484375Q4644.593994140625 -909.80078125 4594.594787597656 -845.2013549804688Q4544.5955810546875 -780.6019287109375 4473.596435546875 -740.602294921875Q4402.5972900390625 -700.6026611328125 4319.1976318359375 -700.6026611328125ZM5114.19970703125 -1417.9998779296875Q5178.1988525390625 -1417.9998779296875 5245.598449707031 -1407.5999755859375Q5312.998046875 -1397.2000732421875 5379.4979248046875 -1381.8002319335938Q5445.997802734375 -1366.400390625 5507.0977783203125 -1350.5005493164062Q5568.19775390625 -1334.6007080078125 5619.59765625 -1324.2008056640625Q5670.99755859375 -1313.8009033203125 5707.59716796875 -1313.8009033203125Q5740.797607421875 -1313.8009033203125 5758.697814941406 -1328.30078125Q5776.5980224609375 -1342.8006591796875 5785.998046875 -1370.400390625Q5792.398193359375 -1387.6005859375 5793.798156738281 -1398.7007446289062Q5795.1981201171875 -1409.8009033203125 5798.798095703125 -1423.000732421875Q5809.1978759765625 -1466.7996826171875 5833.497314453125 -1491.4991455078125Q5857.7967529296875 -1516.1986083984375 5907.1954345703125 -1516.1986083984375Q5953.9942626953125 -1516.1986083984375 5981.7935791015625 -1483.099365234375Q6009.5928955078125 -1450.0001220703125 6008.19287109375 -1382.6015625Q6006.5928955078125 -1282.203369140625 5945.093505859375 -1222.4042358398438Q5883.5941162109375 -1162.6051025390625 5776.1953125 -1162.6051025390625Q5731.3956298828125 -1162.6051025390625 5667.196105957031 -1175.0049438476562Q5602.99658203125 -1187.40478515625 5529.197082519531 -1205.6045532226562Q5455.3975830078125 -1223.8043212890625 5381.5980224609375 -1241.5040893554688Q5307.7984619140625 -1259.203857421875 5243.19873046875 -1271.6036987304688Q5178.5989990234375 -1284.0035400390625 5133.39892578125 -1284.0035400390625Q5069.9974365234375 -1284.0035400390625 5042.4970703125 -1253.8035888671875Q5014.9967041015625 -1223.6036376953125 5013.9967041015625 -1170.6038818359375Q5013.9967041015625 -1158.6038818359375 5016.196838378906 -1147.2037963867188Q5018.39697265625 -1135.8037109375 5020.797119140625 -1122.70361328125Q5023.197265625 -1109.603515625 5022.7972412109375 -1092.803466796875Q5022.397216796875 -1047.0047607421875 4998.397705078125 -1016.60546875Q4974.398193359375 -986.2061767578125 4921.99951171875 -986.2061767578125Q4864.6009521484375 -986.2061767578125 4829.801818847656 -1024.6052856445312Q4795.002685546875 -1063.00439453125 4796.20263671875 -1134.2027587890625Q4798.20263671875 -1215.0020751953125 4835.002258300781 -1279.5014038085938Q4871.8018798828125 -1344.000732421875 4942.001220703125 -1381.0003051757812Q5012.2005615234375 -1417.9998779296875 5114.19970703125 -1417.9998779296875ZM5272.590576171875 -222.1951904296875Q5263.790771484375 -185.7957763671875 5269.390869140625 -172.7957763671875Q5274.990966796875 -159.7957763671875 5293.990966796875 -151.196044921875L5348.192138671875 -134.79638671875Q5393.99169921875 -113.3970947265625 5393.99169921875 -72.39794921875Q5393.99169921875 -35.7989501953125 5371.09228515625 -17.89947509765625Q5348.19287109375 0.0 5312.59375 0.0H4898.7967529296875Q4863.19775390625 0.0 4847.198181152344 -17.3995361328125Q4831.1986083984375 -34.799072265625 4831.5986328125 -61.998291015625Q4832.398681640625 -90.99755859375 4847.8984375 -109.5970458984375Q4863.398193359375 -128.196533203125 4888.3978271484375 -138.796142578125L4935.1986083984375 -153.5958251953125Q4965.9989013671875 -164.195556640625 4980.399108886719 -184.5953369140625Q4994.79931640625 -204.9951171875 5007.19921875 -251.9947509765625Q5017.9991455078125 -289.1944580078125 5036.5992431640625 -356.794677734375Q5055.1993408203125 -424.3948974609375 5079.3995361328125 -510.9954833984375Q5103.5997314453125 -597.5960693359375 5130.0999755859375 -694.3968505859375Q5156.6002197265625 -791.1976318359375 5183.1004638671875 -888.3984375Q5209.6007080078125 -985.5992431640625 5233.700927734375 -1073.2999267578125Q5257.8011474609375 -1161.0006103515625 5276.7012939453125 -1230.6010131835938Q5295.6014404296875 -1300.201416015625 5307.00146484375 -1340.4013671875L5563.9930419921875 -1292.40283203125Q5548.3931884765625 -1236.403564453125 5527.393127441406 -1159.0034790039062Q5506.39306640625 -1081.6033935546875 5481.2928466796875 -991.2027587890625Q5456.192626953125 -900.8021240234375 5430.392333984375 -806.3011474609375Q5404.592041015625 -711.8001708984375 5379.8917236328125 -620.6990966796875Q5355.19140625 -529.5980224609375 5333.7911376953125 -450.297119140625Q5312.390869140625 -370.9962158203125 5296.290710449219 -311.795654296875Q5280.1905517578125 -252.5950927734375 5272.590576171875 -222.1951904296875ZM6206.1962890625 -900.3985595703125Q6325.1954345703125 -900.3985595703125 6403.694763183594 -849.2982177734375Q6482.194091796875 -798.1978759765625 6517.29345703125 -710.2973022460938Q6552.392822265625 -622.396728515625 6539.592041015625 -511.39599609375Q6528.7913818359375 -397.5960693359375 6490.7911376953125 -300.9967041015625Q6452.7908935546875 -204.3973388671875 6387.6912841796875 -132.89813232421875Q6322.5916748046875 -61.39892578125 6230.492919921875 -21.69952392578125Q6138.3941650390625 17.9998779296875 6018.9964599609375 17.9998779296875Q5901.7974853515625 17.9998779296875 5822.4981689453125 -31.0003662109375Q5743.1988525390625 -80.0006103515625 5707.699462890625 -168.00115966796875Q5672.2000732421875 -256.001708984375 5685.0008544921875 -371.6026611328125Q5694.6014404296875 -481.202392578125 5731.601623535156 -577.2017211914062Q5768.601806640625 -673.2010498046875 5833.4013671875 -745.9003295898438Q5898.200927734375 -818.599609375 5991.19970703125 -859.4990844726562Q6084.198486328125 -900.3985595703125 6206.1962890625 -900.3985595703125ZM6043.7960205078125 -115.596435546875Q6077.1962890625 -115.596435546875 6109.596618652344 -140.59600830078125Q6141.9969482421875 -165.5955810546875 6170.997375488281 -208.7950439453125Q6199.997802734375 -251.9945068359375 6223.398254394531 -306.994140625Q6246.7987060546875 -361.9937744140625 6263.7991943359375 -422.29388427734375Q6280.7996826171875 -482.593994140625 6288.400146484375 -541.3948974609375Q6301.6009521484375 -620.5972900390625 6289.0006103515625 -670.39892578125Q6276.4002685546875 -720.2005615234375 6246.899230957031 -743.5014038085938Q6217.398193359375 -766.80224609375 6180.796875 -766.80224609375Q6147.796630859375 -766.80224609375 6115.496276855469 -741.6026611328125Q6083.1959228515625 -716.403076171875 6053.8955078125 -673.0036010742188Q6024.5950927734375 -629.6041259765625 6000.794616699219 -574.6044921875Q5976.994140625 -519.6048583984375 5960.193664550781 -459.5047607421875Q5943.3931884765625 -399.4046630859375 5936.1927490234375 -341.0037841796875Q5923.3919677734375 -261.0013427734375 5935.292236328125 -211.19970703125Q5947.1925048828125 -161.3980712890625 5976.193542480469 -138.49725341796875Q6005.194580078125 -115.596435546875 6043.7960205078125 -115.596435546875ZM7623.193603515625 -1200.2027587890625 7372.791259765625 -315.9949951171875Q7361.7911376953125 -277.39453125 7359.791015625 -249.3941650390625Q7357.7908935546875 -221.393798828125 7365.7908935546875 -206.2935791015625Q7373.7908935546875 -191.193359375 7392.39111328125 -191.193359375Q7406.7913818359375 -191.193359375 7421.391784667969 -199.69366455078125Q7435.9921875 -208.1939697265625 7455.1927490234375 -231.594970703125Q7463.1927490234375 -239.3951416015625 7470.5927734375 -242.09515380859375Q7477.9927978515625 -244.795166015625 7484.9927978515625 -242.7950439453125Q7506.792236328125 -241.1949462890625 7511.991943359375 -218.99542236328125Q7517.191650390625 -196.7958984375 7500.7919921875 -150.397216796875Q7479.7919921875 -96.5980224609375 7441.9925537109375 -58.898681640625Q7404.193115234375 -21.1993408203125 7357.794006347656 -1.5997314453125Q7311.3948974609375 17.9998779296875 7262.995849609375 17.9998779296875Q7190.59716796875 17.9998779296875 7156.2977294921875 -19.3995361328125Q7121.998291015625 -56.7989501953125 7121.998291015625 -124.3980712890625Q7121.998291015625 -155.7977294921875 7126.498474121094 -191.89788818359375Q7130.9986572265625 -227.998046875 7143.19921875 -280.19921875Q7155.3997802734375 -332.400390625 7178.40087890625 -409.403076171875L7206.601318359375 -358.0068359375Q7145.0003662109375 -227.204345703125 7077.9996337890625 -144.202880859375Q7010.9989013671875 -61.201416015625 6939.498474121094 -21.60076904296875Q6867.998046875 17.9998779296875 6790.7979736328125 17.9998779296875Q6691.9984130859375 17.9998779296875 6638.299072265625 -54.60052490234375Q6584.5997314453125 -127.200927734375 6597.4005126953125 -270.0013427734375Q6607.0010986328125 -381.8013916015625 6655.301330566406 -492.4010009765625Q6703.6015625 -603.0006103515625 6784.3013916015625 -694.4000854492188Q6865.001220703125 -785.799560546875 6973.000549316406 -840.6991577148438Q7080.9998779296875 -895.5987548828125 7209.1986083984375 -895.5987548828125Q7283.3973388671875 -895.5987548828125 7332.7965087890625 -868.7994995117188Q7382.1956787109375 -842.000244140625 7408.495422363281 -798.3014526367188Q7434.795166015625 -754.6026611328125 7438.1956787109375 -701.8040771484375L7255.802001953125 -676.803466796875Q7244.201171875 -720.2030029296875 7223.6007080078125 -738.7028198242188Q7203.000244140625 -757.20263671875 7164.5997314453125 -757.20263671875Q7124.198974609375 -757.20263671875 7081.9981689453125 -731.1026611328125Q7039.79736328125 -705.002685546875 7000.796569824219 -659.5026245117188Q6961.7957763671875 -614.0025634765625 6928.7950439453125 -555.102294921875Q6895.7943115234375 -496.2020263671875 6873.3936767578125 -430.6014404296875Q6850.9930419921875 -365.0008544921875 6842.9925537109375 -299.1998291015625Q6832.991943359375 -229.7978515625 6850.692321777344 -190.39642333984375Q6868.3927001953125 -150.9949951171875 6903.7939453125 -150.9949951171875Q6944.1949462890625 -150.9949951171875 6988.896057128906 -186.69580078125Q7033.59716796875 -222.3966064453125 7077.0982666015625 -284.2979736328125Q7120.599365234375 -346.1993408203125 7157.700256347656 -426.30108642578125Q7194.8011474609375 -506.40283203125 7219.6016845703125 -595.2047119140625L7367.6019287109375 -1124.005615234375Q7387.201904296875 -1193.0054931640625 7383.901916503906 -1220.2057495117188Q7380.6019287109375 -1247.406005859375 7357.2015380859375 -1247.406005859375Q7346.201416015625 -1247.406005859375 7333.901184082031 -1243.1058959960938Q7321.6009521484375 -1238.8057861328125 7303.6007080078125 -1226.0054931640625Q7289.800537109375 -1215.8052978515625 7280.100524902344 -1211.705322265625Q7270.4005126953125 -1207.6053466796875 7261.0006103515625 -1210.0054931640625Q7240.201171875 -1212.4056396484375 7234.901550292969 -1239.4049682617188Q7229.6019287109375 -1266.404296875 7253.601318359375 -1312.40283203125Q7278.0008544921875 -1354.6016845703125 7315.0001220703125 -1387.40087890625Q7351.9993896484375 -1420.2000732421875 7399.298400878906 -1438.6996459960938Q7446.597412109375 -1457.19921875 7500.396240234375 -1457.19921875Q7567.994873046875 -1457.19921875 7602.394226074219 -1425.499755859375Q7636.7935791015625 -1393.80029296875 7641.1934814453125 -1336.2011108398438Q7645.5933837890625 -1278.6019287109375 7623.193603515625 -1200.2027587890625ZM7698.396728515625 -433.999267578125Q7698.396728515625 -433.999267578125 7730.096862792969 -444.2994384765625Q7761.7969970703125 -454.599609375 7813.197265625 -471.59991455078125Q7864.5975341796875 -488.6002197265625 7925.297912597656 -509.6005859375Q7985.998291015625 -530.6009521484375 8045.0987548828125 -551.5013427734375Q8104.19921875 -572.4017333984375 8149.5997314453125 -590.0020751953125L8123.2003173828125 -540.4029541015625Q8133.60009765625 -566.402587890625 8137.200012207031 -598.701904296875Q8140.7999267578125 -631.001220703125 8140.7999267578125 -670.4005126953125Q8140.7999267578125 -717.4012451171875 8120.399475097656 -744.501708984375Q8099.9990234375 -771.6021728515625 8058.9981689453125 -771.6021728515625Q8020.1973876953125 -771.6021728515625 7982.696533203125 -741.302001953125Q7945.1956787109375 -711.0018310546875 7912.994873046875 -656.4014282226562Q7880.7940673828125 -601.801025390625 7859.3934326171875 -529.4003295898438Q7837.9927978515625 -456.9996337890625 7831.992431640625 -373.3985595703125Q7823.5919189453125 -263.1966552734375 7866.1922607421875 -204.69586181640625Q7908.7926025390625 -146.195068359375 7990.393310546875 -146.195068359375Q8028.7935791015625 -146.195068359375 8069.893981933594 -160.8953857421875Q8110.994384765625 -175.595703125 8150.0947265625 -206.89642333984375Q8189.195068359375 -238.1971435546875 8220.395141601562 -288.598388671875Q8249.194213867188 -320.59765625 8269.293640136719 -332.6973876953125Q8289.39306640625 -344.797119140625 8309.392578125 -339.997314453125Q8327.792236328125 -335.7974853515625 8334.892150878906 -318.69775390625Q8341.992065429688 -301.5980224609375 8337.591796875 -276.39794921875Q8327.9912109375 -206.998291015625 8273.591674804688 -139.19879150390625Q8219.192138671875 -71.3992919921875 8125.493408203125 -26.69970703125Q8031.794677734375 17.9998779296875 7903.7965087890625 17.9998779296875Q7790.99755859375 17.9998779296875 7716.598327636719 -27.20001220703125Q7642.1990966796875 -72.39990234375 7607.9996337890625 -153.4998779296875Q7573.8001708984375 -234.599853515625 7579.4005126953125 -341.400146484375Q7585.0008544921875 -458.199951171875 7625.700866699219 -559.7996826171875Q7666.40087890625 -661.3994140625 7735.200500488281 -737.6991577148438Q7804.0001220703125 -813.9989013671875 7894.599304199219 -857.19873046875Q7985.198486328125 -900.3985595703125 8090.59716796875 -900.3985595703125Q8169.3963623046875 -900.3985595703125 8222.195739746094 -873.7987060546875Q8274.9951171875 -847.1988525390625 8305.794616699219 -800.2991333007812Q8336.594116210938 -753.3994140625 8347.393676757812 -692.3997802734375Q8352.79345703125 -668.8004150390625 8358.293395996094 -660.2006225585938Q8363.793334960938 -651.600830078125 8374.793212890625 -646.201171875Q8386.193237304688 -642.2015380859375 8393.993286132812 -633.0018310546875Q8401.793334960938 -623.8021240234375 8403.393432617188 -610.40234375Q8405.3935546875 -587.8028564453125 8389.7939453125 -570.2032470703125Q8374.1943359375 -552.6036376953125 8330.595458984375 -538.6038818359375Q8280.995483398438 -520.8037109375 8215.595581054688 -498.7034912109375Q8150.1956787109375 -476.603271484375 8079.495849609375 -453.80303955078125Q8008.7960205078125 -431.0028076171875 7941.4962158203125 -409.3026123046875Q7874.1964111328125 -387.6024169921875 7819.99658203125 -370.50225830078125Q7765.7967529296875 -353.402099609375 7733.596862792969 -343.302001953125Q7701.39697265625 -333.201904296875 7701.39697265625 -333.201904296875Z"/></g></svg>