<svg xmlns="http://www.w3.org/2000/svg" viewBox="13 93 412 244"><path d="M19.0 319.7L19.0 319.7L19.0 320.0L19.0 320.0L19.0 320.0L19.0 320.1L19.0 320.3L19.0 320.3L19.0 320.4L19.0 320.5L19.1 321.0L19.1 321.0L19.1 321.1L19.2 322.0L19.3 322.3L19.5 323.0L19.5 323.3L19.8 324.1L19.9 324.3L20.3 325.0L20.4 325.3L20.8 326.0L21.0 326.2L21.4 326.8L21.6 327.1L22.1 327.7L22.3 327.9L22.9 328.4L23.2 328.6L23.8 329.0L24.0 329.2L24.7 329.6L25.0 329.7L25.7 330.1L25.9 330.2L26.7 330.5L27.0 330.5L27.7 330.7L28.0 330.8L28.9 330.9L29.0 330.9L29.0 330.9L29.5 331.0L29.6 331.0L29.7 331.0L29.7 331.0L29.9 331.0L30.0 331.0L30.0 331.0L30.0 331.0L30.3 331.0L30.3 331.0L311.7 331.0L311.7 331.0L312.0 331.0L312.0 331.0L312.0 331.0L312.1 331.0L312.3 331.0L312.4 331.0L312.4 331.0L312.5 331.0L313.0 330.9L313.0 330.9L313.2 330.9L314.0 330.8L314.3 330.7L315.1 330.5L315.4 330.4L316.1 330.2L316.4 330.0L317.1 329.7L317.4 329.5L318.1 329.1L318.3 329.0L319.0 328.5L319.2 328.3L319.8 327.7L320.0 327.5L320.5 326.9L320.7 326.7L321.2 326.0L321.3 325.8L321.7 325.1L321.9 324.8L322.2 324.1L322.3 323.8L322.5 323.0L322.6 322.7L322.8 321.9L322.8 321.6L322.9 320.9L323.0 320.6L323.0 319.7L323.0 319.4L322.9 318.6L322.8 318.4L322.7 317.6L322.6 317.3L322.4 316.4L322.3 316.3L322.3 316.3L322.2 315.8L322.1 315.7L322.1 315.7L322.1 315.6L322.0 315.4L322.0 315.4L322.0 315.4L322.0 315.3L321.9 315.1L321.8 315.1L309.6 288.8L309.3 288.2L309.1 287.5L309.0 286.9L309.0 286.2L309.0 242.0L309.0 241.3L309.2 240.6L318.1 202.9L318.3 202.3L318.5 201.8L318.8 201.3L319.9 199.2L320.3 198.7L320.6 198.2L321.0 197.8L321.5 197.4L322.0 197.1L322.5 196.8L323.1 196.5L323.6 196.4L324.2 196.2L324.8 196.2L325.4 196.2L326.0 196.2L326.6 196.3L327.2 196.5L327.7 196.7L328.3 197.0L328.8 197.4L329.2 197.7L329.6 198.2L330.0 198.6L330.4 199.1L330.6 199.7L330.8 200.2L331.0 200.8L331.1 201.4L331.1 201.5L331.3 202.3L331.3 202.6L331.6 203.4L331.7 203.7L332.0 204.5L332.1 204.7L332.5 205.5L332.6 205.7L333.1 206.4L333.3 206.6L333.8 207.3L334.0 207.5L334.6 208.1L334.7 208.2L334.8 208.3L335.1 208.6L335.2 208.6L335.2 208.7L335.3 208.7L335.5 208.8L335.5 208.9L335.5 208.9L335.6 208.9L335.8 209.1L335.8 209.1L357.3 224.7L357.3 224.7L357.5 224.9L357.5 224.9L357.6 224.9L357.6 224.9L357.8 225.1L357.8 225.1L357.9 225.1L358.0 225.2L358.4 225.4L358.4 225.5L358.5 225.5L359.3 225.9L359.6 226.1L360.3 226.3L360.6 226.4L361.4 226.7L361.7 226.7L362.5 226.9L362.8 226.9L363.6 227.0L363.9 227.0L364.7 227.0L365.0 226.9L365.8 226.8L366.1 226.8L367.0 226.6L367.1 226.5L367.1 226.5L367.6 226.4L367.7 226.4L367.7 226.3L367.8 226.3L368.0 226.2L368.0 226.2L368.1 226.2L368.1 226.2L368.3 226.1L368.4 226.1L397.8 214.3L397.8 214.3L398.1 214.2L398.1 214.2L398.1 214.2L398.2 214.2L398.4 214.1L398.4 214.1L398.5 214.0L398.5 214.0L399.0 213.8L399.0 213.8L399.1 213.7L399.9 213.3L400.1 213.1L400.8 212.6L401.0 212.4L401.6 211.9L401.8 211.7L402.4 211.1L402.6 210.9L403.0 210.2L403.2 210.0L403.7 209.2L403.7 209.1L403.7 209.1L404.0 208.6L404.0 208.6L404.0 208.5L404.0 208.5L404.1 208.3L404.2 208.2L404.2 208.2L404.2 208.2L404.3 207.9L404.3 207.9L418.1 174.5L418.1 174.4L418.2 174.2L418.2 174.2L418.2 174.1L418.2 174.1L418.3 173.9L418.3 173.8L418.3 173.8L418.3 173.7L418.5 173.2L418.5 173.2L418.6 173.0L418.8 172.2L418.8 171.8L418.9 171.0L419.0 170.7L419.0 169.9L419.0 169.6L418.9 168.7L418.9 168.4L418.7 167.5L418.7 167.4L418.7 167.3L418.5 166.9L418.5 166.8L418.5 166.7L418.5 166.7L418.4 166.4L418.4 166.4L418.4 166.4L418.4 166.3L418.3 166.1L418.3 166.1L404.5 126.6L404.5 126.6L404.4 126.4L404.4 126.4L404.4 126.3L404.4 126.3L404.3 126.1L404.3 126.1L404.2 126.0L404.2 125.9L404.0 125.5L404.0 125.5L404.0 125.4L403.6 124.6L403.4 124.4L403.0 123.8L402.9 123.5L402.4 122.9L402.2 122.7L401.7 122.2L401.5 122.0L400.9 121.5L400.7 121.3L400.1 120.8L400.0 120.8L399.9 120.7L399.5 120.5L399.5 120.5L399.4 120.4L399.4 120.4L399.2 120.3L399.2 120.3L399.1 120.3L399.1 120.3L398.9 120.1L398.9 120.1L361.4 100.4L361.4 100.4L361.1 100.3L361.1 100.3L361.1 100.2L361.0 100.2L360.8 100.1L360.8 100.1L360.7 100.1L360.7 100.1L360.2 99.9L360.2 99.8L360.1 99.8L359.2 99.5L359.0 99.4L358.2 99.2L357.9 99.2L357.1 99.1L356.8 99.1L356.0 99.0L355.7 99.0L354.9 99.1L354.6 99.1L353.8 99.2L353.7 99.3L353.6 99.3L353.2 99.4L353.1 99.4L353.0 99.4L353.0 99.4L352.7 99.5L352.7 99.5L352.7 99.5L352.6 99.5L352.4 99.6L352.4 99.6L309.0 113.4L308.9 113.4L308.7 113.5L308.7 113.5L308.6 113.5L308.6 113.6L308.3 113.6L308.3 113.7L308.2 113.7L308.2 113.7L307.7 113.9L307.6 113.9L307.5 114.0L306.7 114.4L306.4 114.6L305.6 115.1L305.5 115.1L305.5 115.2L305.1 115.5L305.0 115.5L304.9 115.6L304.9 115.6L304.7 115.8L304.7 115.8L304.6 115.8L304.6 115.8L304.4 116.0L304.4 116.0L264.8 151.7L264.8 151.7L264.7 151.8L264.6 151.8L264.6 151.9L264.6 151.9L264.5 152.0L264.4 152.0L264.4 152.1L264.3 152.1L264.1 152.4L264.0 152.4L264.0 152.5L263.9 152.5L263.7 152.8L263.6 152.9L263.6 152.9L263.6 152.9L263.5 153.1L263.4 153.1L263.4 153.1L263.4 153.1L263.3 153.3L263.3 153.3L224.2 202.2L223.9 202.5L223.8 202.6L223.5 202.9L174.6 249.9L174.2 250.3L173.8 250.6L173.3 250.9L172.8 251.1L108.1 278.9L107.5 279.1L106.9 279.2L106.3 279.3L29.2 287.0L29.2 287.0L28.9 287.1L28.9 287.1L28.9 287.1L28.8 287.1L28.6 287.1L28.6 287.1L28.5 287.1L28.4 287.1L28.0 287.2L27.9 287.2L27.8 287.2L27.0 287.5L26.7 287.5L25.9 287.8L25.7 287.9L25.0 288.3L24.7 288.4L24.0 288.8L23.8 289.0L23.1 289.4L22.9 289.6L22.3 290.1L22.1 290.4L21.6 290.9L21.4 291.2L21.0 291.8L20.8 292.0L20.4 292.7L20.2 293.0L19.9 293.7L19.8 293.9L19.5 294.7L19.5 295.0L19.3 295.7L19.2 296.0L19.1 296.9L19.1 297.0L19.1 297.0L19.0 297.5L19.0 297.6L19.0 297.7L19.0 297.7L19.0 297.9L19.0 298.0L19.0 298.0L19.0 298.0L19.0 298.3L19.0 298.3Z" fill="#000" opacity=".16" transform="translate(3 5)"/><path d="M19.0 319.7L19.0 319.7L19.0 320.0L19.0 320.0L19.0 320.0L19.0 320.1L19.0 320.3L19.0 320.3L19.0 320.4L19.0 320.5L19.1 321.0L19.1 321.0L19.1 321.1L19.2 322.0L19.3 322.3L19.5 323.0L19.5 323.3L19.8 324.1L19.9 324.3L20.3 325.0L20.4 325.3L20.8 326.0L21.0 326.2L21.4 326.8L21.6 327.1L22.1 327.7L22.3 327.9L22.9 328.4L23.2 328.6L23.8 329.0L24.0 329.2L24.7 329.6L25.0 329.7L25.7 330.1L25.9 330.2L26.7 330.5L27.0 330.5L27.7 330.7L28.0 330.8L28.9 330.9L29.0 330.9L29.0 330.9L29.5 331.0L29.6 331.0L29.7 331.0L29.7 331.0L29.9 331.0L30.0 331.0L30.0 331.0L30.0 331.0L30.3 331.0L30.3 331.0L311.7 331.0L311.7 331.0L312.0 331.0L312.0 331.0L312.0 331.0L312.1 331.0L312.3 331.0L312.4 331.0L312.4 331.0L312.5 331.0L313.0 330.9L313.0 330.9L313.2 330.9L314.0 330.8L314.3 330.7L315.1 330.5L315.4 330.4L316.1 330.2L316.4 330.0L317.1 329.7L317.4 329.5L318.1 329.1L318.3 329.0L319.0 328.5L319.2 328.3L319.8 327.7L320.0 327.5L320.5 326.9L320.7 326.7L321.2 326.0L321.3 325.8L321.7 325.1L321.9 324.8L322.2 324.1L322.3 323.8L322.5 323.0L322.6 322.7L322.8 321.9L322.8 321.6L322.9 320.9L323.0 320.6L323.0 319.7L323.0 319.4L322.9 318.6L322.8 318.4L322.7 317.6L322.6 317.3L322.4 316.4L322.3 316.3L322.3 316.3L322.2 315.8L322.1 315.7L322.1 315.7L322.1 315.6L322.0 315.4L322.0 315.4L322.0 315.4L322.0 315.3L321.9 315.1L321.8 315.1L309.6 288.8L309.3 288.2L309.1 287.5L309.0 286.9L309.0 286.2L309.0 242.0L309.0 241.3L309.2 240.6L318.1 202.9L318.3 202.3L318.5 201.8L318.8 201.3L319.9 199.2L320.3 198.7L320.6 198.2L321.0 197.8L321.5 197.4L322.0 197.1L322.5 196.8L323.1 196.5L323.6 196.4L324.2 196.2L324.8 196.2L325.4 196.2L326.0 196.2L326.6 196.3L327.2 196.5L327.7 196.7L328.3 197.0L328.8 197.4L329.2 197.7L329.6 198.2L330.0 198.6L330.4 199.1L330.6 199.7L330.8 200.2L331.0 200.8L331.1 201.4L331.1 201.5L331.3 202.3L331.3 202.6L331.6 203.4L331.7 203.7L332.0 204.5L332.1 204.7L332.5 205.5L332.6 205.7L333.1 206.4L333.3 206.6L333.8 207.3L334.0 207.5L334.6 208.1L334.7 208.2L334.8 208.3L335.1 208.6L335.2 208.6L335.2 208.7L335.3 208.7L335.5 208.8L335.5 208.9L335.5 208.9L335.6 208.9L335.8 209.1L335.8 209.1L357.3 224.7L357.3 224.7L357.5 224.9L357.5 224.9L357.6 224.9L357.6 224.9L357.8 225.1L357.8 225.1L357.9 225.1L358.0 225.2L358.4 225.4L358.4 225.5L358.5 225.5L359.3 225.9L359.6 226.1L360.3 226.3L360.6 226.4L361.4 226.7L361.7 226.7L362.5 226.9L362.8 226.9L363.6 227.0L363.9 227.0L364.7 227.0L365.0 226.9L365.8 226.8L366.1 226.8L367.0 226.6L367.1 226.5L367.1 226.5L367.6 226.4L367.7 226.4L367.7 226.3L367.8 226.3L368.0 226.2L368.0 226.2L368.1 226.2L368.1 226.2L368.3 226.1L368.4 226.1L397.8 214.3L397.8 214.3L398.1 214.2L398.1 214.2L398.1 214.2L398.2 214.2L398.4 214.1L398.4 214.1L398.5 214.0L398.5 214.0L399.0 213.8L399.0 213.8L399.1 213.7L399.9 213.3L400.1 213.1L400.8 212.6L401.0 212.4L401.6 211.9L401.8 211.7L402.4 211.1L402.6 210.9L403.0 210.2L403.2 210.0L403.7 209.2L403.7 209.1L403.7 209.1L404.0 208.6L404.0 208.6L404.0 208.5L404.0 208.5L404.1 208.3L404.2 208.2L404.2 208.2L404.2 208.2L404.3 207.9L404.3 207.9L418.1 174.5L418.1 174.4L418.2 174.2L418.2 174.2L418.2 174.1L418.2 174.1L418.3 173.9L418.3 173.8L418.3 173.8L418.3 173.7L418.5 173.2L418.5 173.2L418.6 173.0L418.8 172.2L418.8 171.8L418.9 171.0L419.0 170.7L419.0 169.9L419.0 169.6L418.9 168.7L418.9 168.4L418.7 167.5L418.7 167.4L418.7 167.3L418.5 166.9L418.5 166.8L418.5 166.7L418.5 166.7L418.4 166.4L418.4 166.4L418.4 166.4L418.4 166.3L418.3 166.1L418.3 166.1L404.5 126.6L404.5 126.6L404.4 126.4L404.4 126.4L404.4 126.3L404.4 126.3L404.3 126.1L404.3 126.1L404.2 126.0L404.2 125.9L404.0 125.5L404.0 125.5L404.0 125.4L403.6 124.6L403.4 124.4L403.0 123.8L402.9 123.5L402.4 122.9L402.2 122.7L401.7 122.2L401.5 122.0L400.9 121.5L400.7 121.3L400.1 120.8L400.0 120.8L399.9 120.7L399.5 120.5L399.5 120.5L399.4 120.4L399.4 120.4L399.2 120.3L399.2 120.3L399.1 120.3L399.1 120.3L398.9 120.1L398.9 120.1L361.4 100.4L361.4 100.4L361.1 100.3L361.1 100.3L361.1 100.2L361.0 100.2L360.8 100.1L360.8 100.1L360.7 100.1L360.7 100.1L360.2 99.9L360.2 99.8L360.1 99.8L359.2 99.5L359.0 99.4L358.2 99.2L357.9 99.2L357.1 99.1L356.8 99.1L356.0 99.0L355.7 99.0L354.9 99.1L354.6 99.1L353.8 99.2L353.7 99.3L353.6 99.3L353.2 99.4L353.1 99.4L353.0 99.4L353.0 99.4L352.7 99.5L352.7 99.5L352.7 99.5L352.6 99.5L352.4 99.6L352.4 99.6L309.0 113.4L308.9 113.4L308.7 113.5L308.7 113.5L308.6 113.5L308.6 113.6L308.3 113.6L308.3 113.7L308.2 113.7L308.2 113.7L307.7 113.9L307.6 113.9L307.5 114.0L306.7 114.4L306.4 114.6L305.6 115.1L305.5 115.1L305.5 115.2L305.1 115.5L305.0 115.5L304.9 115.6L304.9 115.6L304.7 115.8L304.7 115.8L304.6 115.8L304.6 115.8L304.4 116.0L304.4 116.0L264.8 151.7L264.8 151.7L264.7 151.8L264.6 151.8L264.6 151.9L264.6 151.9L264.5 152.0L264.4 152.0L264.4 152.1L264.3 152.1L264.1 152.4L264.0 152.4L264.0 152.5L263.9 152.5L263.7 152.8L263.6 152.9L263.6 152.9L263.6 152.9L263.5 153.1L263.4 153.1L263.4 153.1L263.4 153.1L263.3 153.3L263.3 153.3L224.2 202.2L223.9 202.5L223.8 202.6L223.5 202.9L174.6 249.9L174.2 250.3L173.8 250.6L173.3 250.9L172.8 251.1L108.1 278.9L107.5 279.1L106.9 279.2L106.3 279.3L29.2 287.0L29.2 287.0L28.9 287.1L28.9 287.1L28.9 287.1L28.8 287.1L28.6 287.1L28.6 287.1L28.5 287.1L28.4 287.1L28.0 287.2L27.9 287.2L27.8 287.2L27.0 287.5L26.7 287.5L25.9 287.8L25.7 287.9L25.0 288.3L24.7 288.4L24.0 288.8L23.8 289.0L23.1 289.4L22.9 289.6L22.3 290.1L22.1 290.4L21.6 290.9L21.4 291.2L21.0 291.8L20.8 292.0L20.4 292.7L20.2 293.0L19.9 293.7L19.8 293.9L19.5 294.7L19.5 295.0L19.3 295.7L19.2 296.0L19.1 296.9L19.1 297.0L19.1 297.0L19.0 297.5L19.0 297.6L19.0 297.7L19.0 297.7L19.0 297.9L19.0 298.0L19.0 298.0L19.0 298.0L19.0 298.3L19.0 298.3Z" fill="#FBF7EF"/><path d="M30.0 319.7L30.0 319.8L30.0 319.9L30.0 320.0L30.1 320.0L30.2 320.0L30.3 320.0L311.7 320.0L311.8 320.0L311.9 320.0L312.0 320.0L312.0 319.9L311.9 319.8L311.9 319.7L299.0 292.1L298.9 291.9L298.6 291.2L298.5 290.8L298.3 290.1L298.2 289.8L298.1 289.0L298.1 288.7L298.0 287.9L298.0 287.7L298.0 241.3L298.0 241.1L298.1 240.2L298.1 239.8L298.3 238.9L298.3 238.8L307.7 199.4L307.7 199.3L307.9 198.6L308.0 198.3L308.2 197.7L308.3 197.5L308.7 196.8L308.7 196.7L324.2 169.2L324.3 169.1L324.7 168.4L324.9 168.2L325.3 167.6L325.5 167.4L325.9 166.9L326.2 166.7L326.7 166.3L326.9 166.1L327.5 165.7L327.7 165.5L328.3 165.2L328.6 165.0L329.3 164.7L329.4 164.7L334.3 162.8L334.4 162.8L335.1 162.5L335.4 162.5L336.1 162.3L336.4 162.3L337.0 162.2L337.3 162.2L338.0 162.1L338.3 162.1L339.0 162.2L339.3 162.2L340.0 162.4L340.3 162.4L340.9 162.6L341.2 162.7L341.9 162.9L342.1 163.1L342.7 163.4L343.0 163.5L343.6 163.9L343.8 164.1L344.4 164.5L344.6 164.7L345.1 165.2L345.3 165.4L345.7 165.9L345.9 166.1L346.3 166.7L346.5 166.9L346.8 167.5L346.9 167.8L347.2 168.4L347.3 168.7L347.5 169.4L347.6 169.6L347.7 170.3L347.8 170.6L347.9 171.3L347.9 171.6L347.9 172.3L347.9 172.6L347.8 173.2L347.8 173.5L347.7 174.2L347.6 174.5L347.4 175.2L347.3 175.4L347.1 176.1L347.0 176.3L346.7 177.0L346.5 177.2L346.1 177.9L346.1 177.9L346.0 178.0L346.0 178.1L346.0 178.2L345.9 178.3L342.1 199.7L342.0 199.8L342.0 199.9L342.0 200.0L342.1 200.0L342.2 200.1L342.2 200.2L363.8 215.8L363.8 215.9L363.9 215.9L364.0 216.0L364.1 216.0L364.2 215.9L364.3 215.9L393.7 204.1L393.8 204.1L393.9 204.0L394.0 204.0L394.0 203.9L394.1 203.8L394.1 203.7L407.9 170.3L407.9 170.2L408.0 170.1L408.0 170.0L408.0 169.9L407.9 169.8L407.9 169.7L394.1 130.3L394.1 130.2L394.0 130.1L394.0 130.0L393.9 130.0L393.8 129.9L393.8 129.9L356.3 110.1L356.2 110.1L356.1 110.0L356.0 110.0L355.9 110.0L355.8 110.1L355.7 110.1L312.3 123.9L312.2 123.9L312.1 124.0L312.0 124.0L311.9 124.1L311.8 124.2L311.8 124.2L272.2 159.8L272.1 159.9L272.0 160.0L272.0 160.1L271.9 160.1L271.9 160.2L232.5 209.4L232.3 209.6L231.6 210.4L231.5 210.5L181.4 258.7L181.3 258.8L180.7 259.2L180.5 259.4L180.0 259.8L179.8 259.9L179.3 260.3L179.0 260.4L178.4 260.7L178.3 260.7L111.5 289.4L111.3 289.4L110.6 289.7L110.3 289.8L109.6 290.0L109.3 290.0L108.5 290.1L108.4 290.2L30.3 298.0L30.2 298.0L30.1 298.0L30.0 298.0L30.0 298.1L30.0 298.2L30.0 298.3Z" fill="#BFD3EA"/><g fill="none" stroke="#22324F" stroke-width="3.4" stroke-linecap="round" stroke-linejoin="round"><path d="M70.2 306.2 76.5 305.7 85.1 305.3 95.2 304.8 106.5 304.1 118.2 303.2 129.7 301.9 140.6 300.3 150.2 298.1 158.7 295.5 167.0 292.5 174.9 289.1 182.5 285.4 189.8 281.4 196.8 277.1 203.6 272.6 210.1 268.0 216.2 262.9 221.9 257.5 227.4 251.7 232.5 245.7 237.5 239.7 242.3 233.6 247.1 227.6 251.9 221.8 256.7 216.1 261.4 210.3 265.9 204.5 270.4 198.7 274.8 193.1 279.2 187.7 283.5 182.6 287.9 177.9 292.4 173.5 297.3 169.2 302.2 165.1 307.1 161.2 311.7 157.7 315.8 154.7 319.2 152.1 321.9 150.1"/><path d="M119.7 312.1 125.3 311.4 132.8 310.8 141.8 310.0 151.7 309.1 162.1 307.9 172.2 306.4 181.8 304.4 190.1 302.1 197.4 299.1 204.4 295.7 211.1 291.8 217.4 287.7 223.4 283.3 229.2 278.7 234.7 274.2 240.0 269.8 245.3 265.0 250.4 259.8 255.4 254.3 260.1 248.9 264.4 243.7 268.3 239.0 271.5 235.0 274.0 232.1"/><path d="M351.9 132.3 354.6 132.9 358.3 133.5 362.7 134.3 367.5 135.2 372.4 136.3 377.0 137.8 381.0 139.6 384.1 141.9 386.5 144.7 388.4 148.1 389.9 151.9 391.1 156.0 391.9 160.2 392.2 164.4 392.3 168.4 391.9 172.0 390.9 175.4 389.2 179.0 386.9 182.5 384.4 185.9 381.8 189.1 379.4 191.9 377.4 194.3 376.1 196.1"/></g></svg>